<?xml version="1.0" encoding="UTF-8"?>
<svg xmlns="http://www.w3.org/2000/svg" xmlns:xlink="http://www.w3.org/1999/xlink" width="210pt" height="209.999996pt" viewBox="0 0 210 209.999996" version="1.2">
<defs>
<clipPath id="clip1">
  <path d="M 150 45 L 207.449219 45 L 207.449219 121 L 150 121 Z M 150 45 "/>
</clipPath>
<clipPath id="clip2">
  <path d="M 181 24.308594 L 207 24.308594 L 207 58 L 181 58 Z M 181 24.308594 "/>
</clipPath>
</defs>
<g id="surface1">
<path style=" stroke:none;fill-rule:nonzero;fill:rgb(1.568604%,2.349854%,2.349854%);fill-opacity:1;" d="M 88.464844 168.605469 L 88.175781 168.601562 C 88.269531 147.429688 88.105469 125.953125 87.683594 104.765625 L 87.972656 104.757812 C 88.394531 125.949219 88.558594 147.429688 88.464844 168.605469 "/>
<path style=" stroke:none;fill-rule:nonzero;fill:rgb(1.568604%,2.349854%,2.349854%);fill-opacity:1;" d="M 116.84375 170.316406 L 116.554688 170.316406 L 116.722656 105.441406 L 117.007812 105.441406 L 116.84375 170.316406 "/>
<path style=" stroke:none;fill-rule:nonzero;fill:rgb(1.568604%,2.349854%,2.349854%);fill-opacity:1;" d="M 88.324219 154.539062 L 88.308594 154.253906 C 97.765625 153.777344 107.359375 153.636719 116.824219 153.839844 L 116.816406 154.128906 C 107.359375 153.925781 97.773438 154.066406 88.324219 154.539062 "/>
<path style=" stroke:none;fill-rule:nonzero;fill:rgb(1.568604%,2.349854%,2.349854%);fill-opacity:1;" d="M 102.367188 151.085938 C 97.613281 151.085938 92.859375 150.988281 88.136719 150.796875 L 88.148438 150.507812 C 97.71875 150.902344 107.417969 150.894531 116.984375 150.492188 L 116.996094 150.78125 C 112.144531 150.984375 107.257812 151.085938 102.367188 151.085938 "/>
<path style=" stroke:none;fill-rule:nonzero;fill:rgb(69.018555%,64.309692%,58.81958%);fill-opacity:1;" d="M 84.316406 101.761719 C 84.410156 103.242188 84.65625 104.714844 85.058594 106.171875 C 85.105469 106.335938 85.160156 106.511719 85.328125 106.628906 C 85.546875 106.78125 85.890625 106.800781 86.203125 106.8125 C 97.097656 107.210938 108.015625 107.269531 118.917969 106.988281 C 118.859375 105.140625 118.925781 103.289062 119.121094 101.445312 C 107.800781 101.914062 84.253906 102.007812 84.316406 101.761719 "/>
<path style=" stroke:none;fill-rule:nonzero;fill:rgb(1.568604%,2.349854%,2.349854%);fill-opacity:1;" d="M 175.390625 162.121094 C 175.140625 146.730469 175.214844 131.988281 175.601562 119.484375 L 175.890625 119.492188 C 175.503906 131.992188 175.429688 146.730469 175.679688 162.117188 L 175.390625 162.121094 "/>
<path style=" stroke:none;fill-rule:nonzero;fill:rgb(1.568604%,2.349854%,2.349854%);fill-opacity:1;" d="M 188.726562 167.476562 C 188.105469 167.476562 187.46875 167.753906 187.09375 168.253906 C 186.507812 169.042969 186.578125 170.257812 187.257812 171.023438 C 187.910156 171.761719 189.050781 172.042969 190.03125 171.707031 C 190.390625 171.582031 190.6875 171.390625 190.890625 171.15625 C 191.351562 170.625 191.402344 169.738281 191.019531 169.003906 C 190.773438 168.535156 190.367188 168.109375 189.789062 167.710938 L 189.742188 167.773438 C 189.453125 167.570312 189.089844 167.476562 188.726562 167.476562 Z M 189.175781 172.132812 C 188.363281 172.132812 187.5625 171.804688 187.039062 171.210938 C 186.277344 170.351562 186.199219 168.976562 186.859375 168.085938 C 187.433594 167.316406 188.496094 167.007812 189.371094 167.28125 L 189.445312 167.15625 C 190.339844 167.664062 190.9375 168.226562 191.277344 168.871094 C 191.710938 169.710938 191.644531 170.726562 191.109375 171.34375 C 190.875 171.617188 190.535156 171.835938 190.125 171.976562 C 189.820312 172.082031 189.496094 172.132812 189.175781 172.132812 "/>
<path style=" stroke:none;fill-rule:nonzero;fill:rgb(1.568604%,2.349854%,2.349854%);fill-opacity:1;" d="M 175.273438 167.476562 C 174.65625 167.476562 174.015625 167.753906 173.640625 168.253906 C 173.054688 169.042969 173.128906 170.257812 173.804688 171.023438 C 174.457031 171.761719 175.601562 172.042969 176.578125 171.707031 C 176.9375 171.582031 177.234375 171.390625 177.441406 171.15625 C 177.898438 170.625 177.953125 169.738281 177.566406 169.003906 C 177.320312 168.535156 176.917969 168.109375 176.339844 167.710938 L 176.292969 167.773438 C 176 167.570312 175.640625 167.476562 175.273438 167.476562 Z M 175.722656 172.132812 C 174.910156 172.132812 174.109375 171.804688 173.585938 171.210938 C 172.824219 170.351562 172.746094 168.976562 173.410156 168.085938 C 173.980469 167.316406 175.046875 167.007812 175.921875 167.28125 L 175.992188 167.15625 C 176.886719 167.664062 177.484375 168.226562 177.824219 168.871094 C 178.261719 169.710938 178.191406 170.726562 177.65625 171.34375 C 177.421875 171.617188 177.082031 171.835938 176.671875 171.976562 C 176.367188 172.082031 176.042969 172.132812 175.722656 172.132812 "/>
<path style=" stroke:none;fill-rule:nonzero;fill:rgb(1.568604%,2.349854%,2.349854%);fill-opacity:1;" d="M 164.683594 167.476562 C 164.0625 167.476562 163.425781 167.753906 163.050781 168.253906 C 162.464844 169.042969 162.535156 170.257812 163.210938 171.023438 C 163.863281 171.761719 165.007812 172.042969 165.988281 171.707031 C 166.347656 171.582031 166.644531 171.390625 166.847656 171.15625 C 167.308594 170.625 167.359375 169.738281 166.976562 169.003906 C 166.730469 168.535156 166.324219 168.109375 165.746094 167.710938 L 165.699219 167.773438 C 165.40625 167.570312 165.046875 167.476562 164.683594 167.476562 Z M 165.132812 172.132812 C 164.320312 172.132812 163.519531 171.804688 162.996094 171.210938 C 162.234375 170.351562 162.15625 168.976562 162.816406 168.085938 C 163.390625 167.316406 164.453125 167.007812 165.328125 167.28125 L 165.402344 167.15625 C 166.296875 167.664062 166.894531 168.226562 167.230469 168.871094 C 167.667969 169.710938 167.601562 170.726562 167.066406 171.34375 C 166.828125 171.617188 166.488281 171.835938 166.082031 171.976562 C 165.773438 172.082031 165.453125 172.132812 165.132812 172.132812 "/>
<path style=" stroke:none;fill-rule:nonzero;fill:rgb(1.568604%,2.349854%,2.349854%);fill-opacity:1;" d="M 187.546875 161.527344 C 187.386719 161.296875 187.0625 161.269531 186.777344 161.265625 C 178.980469 161.164062 171.1875 161.058594 163.390625 160.953125 C 163.433594 162.132812 163.296875 163.320312 162.984375 164.460938 C 171.164062 164.332031 179.34375 164.207031 187.527344 164.082031 C 187.640625 163.394531 187.6875 162.691406 187.660156 161.996094 C 187.65625 161.832031 187.644531 161.660156 187.546875 161.527344 "/>
<path style=" stroke:none;fill-rule:nonzero;fill:rgb(1.568604%,2.349854%,2.349854%);fill-opacity:1;" d="M 187.386719 167.898438 C 186.101562 166.613281 184.851562 165.253906 183.675781 163.867188 L 183.898438 163.679688 C 185.066406 165.0625 186.308594 166.414062 187.589844 167.695312 L 187.386719 167.898438 "/>
<path style=" stroke:none;fill-rule:nonzero;fill:rgb(1.568604%,2.349854%,2.349854%);fill-opacity:1;" d="M 175.386719 167.621094 L 175.351562 163.070312 L 175.640625 163.070312 L 175.675781 167.621094 L 175.386719 167.621094 "/>
<path style=" stroke:none;fill-rule:nonzero;fill:rgb(1.568604%,2.349854%,2.349854%);fill-opacity:1;" d="M 165.554688 167.863281 L 165.292969 167.746094 C 165.632812 166.992188 166.246094 166.414062 166.835938 165.851562 C 167.492188 165.230469 168.113281 164.640625 168.386719 163.839844 L 168.664062 163.933594 C 168.367188 164.800781 167.6875 165.441406 167.035156 166.0625 C 166.460938 166.601562 165.871094 167.164062 165.554688 167.863281 "/>
<g clip-path="url(#clip1)" clip-rule="nonzero">
<path style=" stroke:none;fill-rule:nonzero;fill:rgb(85.099792%,26.269531%,13.729858%);fill-opacity:1;" d="M 204.679688 47.792969 C 197.976562 45.910156 190.949219 45.191406 184.007812 45.671875 C 183.019531 45.742188 181.988281 45.851562 181.183594 46.417969 C 180.234375 47.089844 179.789062 48.25 179.410156 49.34375 C 172.769531 68.511719 169.089844 89.632812 155.671875 104.878906 C 153.832031 106.972656 151.785156 108.988281 150.714844 111.558594 C 149.648438 114.132812 149.652344 114.871094 151.839844 116.601562 C 154.023438 118.332031 157.363281 120.445312 160.121094 120.03125 C 164.886719 119.320312 169.734375 119.148438 174.539062 119.527344 C 180.585938 120 187.289062 121.183594 192.226562 117.671875 C 193.09375 117.054688 193.890625 116.285156 194.316406 115.308594 C 194.792969 114.226562 194.777344 113.003906 194.761719 111.820312 C 194.464844 95.515625 194.605469 78.652344 201.183594 63.71875 C 202.898438 59.820312 205.035156 56.109375 206.632812 52.160156 C 207.046875 51.144531 207.40625 49.933594 206.8125 49.015625 C 206.359375 48.3125 205.488281 48.019531 204.679688 47.792969 "/>
</g>
<path style=" stroke:none;fill-rule:nonzero;fill:rgb(1.568604%,2.349854%,2.349854%);fill-opacity:1;" d="M 34.910156 162.121094 L 34.621094 162.117188 C 34.867188 146.738281 34.796875 132 34.410156 119.492188 L 34.699219 119.484375 C 35.085938 131.996094 35.15625 146.738281 34.910156 162.121094 "/>
<path style=" stroke:none;fill-rule:nonzero;fill:rgb(1.568604%,2.349854%,2.349854%);fill-opacity:1;" d="M 20.507812 167.710938 C 19.929688 168.109375 19.527344 168.535156 19.28125 169.003906 C 18.898438 169.738281 18.949219 170.625 19.40625 171.15625 C 19.609375 171.390625 19.910156 171.582031 20.269531 171.707031 C 21.25 172.042969 22.390625 171.761719 23.042969 171.023438 C 23.71875 170.257812 23.789062 169.042969 23.207031 168.253906 C 22.609375 167.457031 21.347656 167.226562 20.554688 167.773438 Z M 21.125 172.132812 C 20.804688 172.132812 20.480469 172.082031 20.175781 171.976562 C 19.765625 171.835938 19.425781 171.617188 19.1875 171.34375 C 18.65625 170.726562 18.589844 169.710938 19.023438 168.871094 C 19.359375 168.226562 19.960938 167.664062 20.855469 167.15625 L 20.925781 167.28125 C 21.804688 167.007812 22.867188 167.316406 23.4375 168.085938 C 24.101562 168.976562 24.023438 170.351562 23.261719 171.210938 C 22.738281 171.804688 21.9375 172.132812 21.125 172.132812 "/>
<path style=" stroke:none;fill-rule:nonzero;fill:rgb(1.568604%,2.349854%,2.349854%);fill-opacity:1;" d="M 33.960938 167.710938 C 33.382812 168.109375 32.980469 168.535156 32.734375 169.003906 C 32.347656 169.738281 32.402344 170.625 32.859375 171.15625 C 33.0625 171.390625 33.359375 171.582031 33.71875 171.707031 C 34.703125 172.042969 35.84375 171.761719 36.496094 171.023438 C 37.171875 170.257812 37.242188 169.042969 36.65625 168.253906 C 36.0625 167.457031 34.800781 167.226562 34.007812 167.773438 Z M 34.574219 172.132812 C 34.253906 172.132812 33.933594 172.082031 33.625 171.976562 C 33.21875 171.835938 32.875 171.617188 32.640625 171.34375 C 32.105469 170.726562 32.039062 169.710938 32.476562 168.871094 C 32.8125 168.226562 33.410156 167.664062 34.308594 167.15625 L 34.378906 167.28125 C 35.253906 167.007812 36.320312 167.316406 36.890625 168.085938 C 37.554688 168.976562 37.476562 170.351562 36.710938 171.210938 C 36.1875 171.804688 35.386719 172.132812 34.574219 172.132812 "/>
<path style=" stroke:none;fill-rule:nonzero;fill:rgb(1.568604%,2.349854%,2.349854%);fill-opacity:1;" d="M 44.550781 167.710938 C 43.972656 168.109375 43.570312 168.535156 43.324219 169.003906 C 42.941406 169.738281 42.992188 170.625 43.449219 171.15625 C 43.652344 171.390625 43.953125 171.582031 44.3125 171.707031 C 45.292969 172.042969 46.433594 171.761719 47.085938 171.023438 C 47.761719 170.257812 47.835938 169.042969 47.25 168.253906 C 46.65625 167.457031 45.390625 167.226562 44.597656 167.773438 Z M 45.167969 172.132812 C 44.847656 172.132812 44.523438 172.082031 44.21875 171.976562 C 43.808594 171.835938 43.46875 171.617188 43.230469 171.34375 C 42.699219 170.726562 42.632812 169.710938 43.066406 168.871094 C 43.40625 168.226562 44.003906 167.664062 44.898438 167.15625 L 44.96875 167.28125 C 45.847656 167.007812 46.910156 167.316406 47.480469 168.085938 C 48.144531 168.976562 48.066406 170.351562 47.304688 171.210938 C 46.78125 171.804688 45.980469 172.132812 45.167969 172.132812 "/>
<path style=" stroke:none;fill-rule:nonzero;fill:rgb(1.568604%,2.349854%,2.349854%);fill-opacity:1;" d="M 23.519531 161.265625 C 23.238281 161.269531 22.914062 161.296875 22.75 161.527344 C 22.65625 161.660156 22.644531 161.832031 22.636719 161.996094 C 22.613281 162.691406 22.660156 163.394531 22.773438 164.082031 C 30.953125 164.207031 39.136719 164.332031 47.316406 164.460938 C 47.003906 163.320312 46.867188 162.132812 46.910156 160.953125 C 39.113281 161.058594 31.316406 161.164062 23.519531 161.265625 "/>
<path style=" stroke:none;fill-rule:nonzero;fill:rgb(1.568604%,2.349854%,2.349854%);fill-opacity:1;" d="M 22.910156 167.898438 L 22.707031 167.695312 C 23.988281 166.410156 25.234375 165.0625 26.402344 163.679688 L 26.621094 163.867188 C 25.449219 165.253906 24.199219 166.609375 22.910156 167.898438 "/>
<path style=" stroke:none;fill-rule:nonzero;fill:rgb(1.568604%,2.349854%,2.349854%);fill-opacity:1;" d="M 34.914062 167.621094 L 34.625 167.621094 L 34.660156 163.070312 L 34.949219 163.070312 L 34.914062 167.621094 "/>
<path style=" stroke:none;fill-rule:nonzero;fill:rgb(1.568604%,2.349854%,2.349854%);fill-opacity:1;" d="M 44.742188 167.863281 C 44.425781 167.164062 43.835938 166.601562 43.265625 166.0625 C 42.609375 165.441406 41.933594 164.800781 41.636719 163.933594 L 41.910156 163.839844 C 42.183594 164.640625 42.804688 165.230469 43.464844 165.851562 C 44.054688 166.414062 44.667969 166.996094 45.007812 167.746094 L 44.742188 167.863281 "/>
<path style=" stroke:none;fill-rule:nonzero;fill:rgb(12.159729%,38.038635%,21.569824%);fill-opacity:1;" d="M 54.625 104.878906 C 41.210938 89.632812 37.53125 68.511719 30.886719 49.34375 C 30.507812 48.25 30.066406 47.085938 29.117188 46.417969 C 28.308594 45.851562 27.277344 45.742188 26.292969 45.671875 C 19.347656 45.191406 12.320312 45.910156 5.621094 47.789062 C 4.8125 48.015625 3.941406 48.308594 3.484375 49.011719 C 2.890625 49.933594 3.253906 51.144531 3.664062 52.160156 C 5.265625 56.109375 7.398438 59.820312 9.117188 63.71875 C 15.695312 78.652344 15.832031 95.515625 15.539062 111.820312 C 15.519531 113.003906 15.503906 114.226562 15.980469 115.308594 C 16.410156 116.285156 17.203125 117.054688 18.070312 117.671875 C 23.011719 121.183594 29.710938 120 35.757812 119.527344 C 40.5625 119.148438 45.414062 119.316406 50.179688 120.03125 C 52.9375 120.445312 56.273438 118.332031 58.457031 116.601562 C 60.644531 114.871094 60.648438 114.132812 59.582031 111.558594 C 58.511719 108.988281 56.46875 106.972656 54.625 104.878906 "/>
<path style=" stroke:none;fill-rule:nonzero;fill:rgb(21.958923%,31.759644%,67.059326%);fill-opacity:1;" d="M 81.398438 95.109375 C 81.507812 97.511719 81.796875 99.90625 82.269531 102.265625 C 82.324219 102.53125 82.386719 102.8125 82.589844 103.007812 C 82.847656 103.253906 83.25 103.289062 83.617188 103.304688 C 96.433594 103.953125 109.28125 104.046875 122.109375 103.589844 C 122.039062 100.589844 122.117188 97.589844 122.347656 94.597656 C 109.03125 95.359375 81.324219 95.511719 81.398438 95.109375 "/>
<path style=" stroke:none;fill-rule:nonzero;fill:rgb(1.568604%,2.349854%,2.349854%);fill-opacity:1;" d="M 31.90625 115.484375 L 26.0625 114.382812 C 24.980469 114.179688 23.867188 113.96875 22.871094 113.425781 C 19.78125 111.746094 19.101562 107.742188 18.847656 104.050781 L 18.664062 101.347656 C 17.777344 88.207031 16.855469 74.617188 12.394531 62.097656 C 10.960938 58.0625 9.152344 54.132812 7.019531 50.417969 L 7.269531 50.277344 C 9.410156 54.007812 11.226562 57.953125 12.667969 62 C 17.140625 74.558594 18.0625 88.167969 18.953125 101.328125 L 19.136719 104.03125 C 19.386719 107.644531 20.039062 111.558594 23.007812 113.171875 C 23.964844 113.691406 25.058594 113.898438 26.113281 114.097656 L 31.960938 115.203125 L 31.90625 115.484375 "/>
<path style=" stroke:none;fill-rule:nonzero;fill:rgb(1.568604%,2.349854%,2.349854%);fill-opacity:1;" d="M 38.722656 116.921875 L 38.433594 116.894531 C 38.683594 114.066406 38.839844 111.191406 38.894531 108.347656 L 39.179688 108.351562 C 39.125 111.203125 38.972656 114.085938 38.722656 116.921875 "/>
<path style=" stroke:none;fill-rule:nonzero;fill:rgb(1.568604%,2.349854%,2.349854%);fill-opacity:1;" d="M 33.457031 116.566406 L 33.167969 116.566406 L 33.167969 107.664062 L 33.457031 107.664062 L 33.457031 116.566406 "/>
<path style=" stroke:none;fill-rule:nonzero;fill:rgb(1.568604%,2.349854%,2.349854%);fill-opacity:1;" d="M 27.8125 116.921875 L 27.527344 116.902344 C 27.746094 113.503906 27.839844 110.050781 27.804688 106.640625 L 28.09375 106.636719 C 28.128906 110.054688 28.035156 113.515625 27.8125 116.921875 "/>
<path style=" stroke:none;fill-rule:nonzero;fill:rgb(1.568604%,2.349854%,2.349854%);fill-opacity:1;" d="M 22.320312 116.003906 L 22.03125 115.992188 C 22.164062 112.660156 22.21875 109.28125 22.195312 105.953125 L 22.484375 105.953125 C 22.507812 109.285156 22.453125 112.664062 22.320312 116.003906 "/>
<path style=" stroke:none;fill-rule:nonzero;fill:rgb(21.958923%,31.759644%,67.059326%);fill-opacity:1;" d="M 140.445312 175.398438 C 140.039062 175.609375 139.613281 175.808594 139.261719 176.105469 C 138.699219 176.574219 138.347656 177.246094 137.976562 177.878906 C 136.507812 180.40625 134.488281 182.613281 132.105469 184.3125 C 135.761719 185.429688 139.988281 184.445312 142.769531 181.824219 C 143.742188 180.90625 144.550781 179.789062 144.925781 178.511719 C 144.3125 180.566406 143.699219 182.625 143.085938 184.683594 C 143.566406 184.675781 144.042969 184.671875 144.523438 184.664062 C 145.101562 182.773438 145.679688 180.878906 146.257812 178.984375 C 146.679688 177.605469 147.105469 176.214844 147.210938 174.773438 C 147.320312 173.335938 147.085938 171.828125 146.28125 170.628906 C 144.691406 172.59375 142.691406 174.226562 140.445312 175.398438 "/>
<path style=" stroke:none;fill-rule:nonzero;fill:rgb(96.469116%,54.119873%,44.309998%);fill-opacity:1;" d="M 141.761719 157.539062 C 141.804688 164.734375 141.066406 171.78125 137.929688 178.195312 C 137.546875 178.988281 137.324219 180.257812 138.179688 180.464844 C 138.417969 180.519531 138.667969 180.457031 138.898438 180.382812 C 141.007812 179.722656 142.886719 178.347656 144.148438 176.539062 C 145.878906 174.0625 146.398438 170.964844 146.875 167.980469 C 147.347656 165.007812 147.820312 162.039062 148.292969 159.066406 C 148.058594 159.011719 147.828125 158.964844 147.59375 158.90625 C 146.003906 158.507812 143.769531 157.679688 141.761719 157.539062 "/>
<path style=" stroke:none;fill-rule:nonzero;fill:rgb(21.958923%,31.759644%,67.059326%);fill-opacity:1;" d="M 130.800781 169.589844 C 130.394531 169.800781 129.972656 170.003906 129.617188 170.296875 C 129.054688 170.769531 128.703125 171.4375 128.332031 172.070312 C 126.863281 174.597656 124.84375 176.808594 122.460938 178.507812 C 126.121094 179.625 130.34375 178.636719 133.125 176.015625 C 134.097656 175.101562 134.90625 173.980469 135.28125 172.703125 C 134.667969 174.761719 134.054688 176.816406 133.441406 178.875 C 133.921875 178.871094 134.398438 178.863281 134.878906 178.859375 C 135.457031 176.964844 136.035156 175.074219 136.613281 173.179688 C 137.035156 171.800781 137.460938 170.40625 137.570312 168.96875 C 137.675781 167.53125 137.441406 166.023438 136.636719 164.824219 C 135.046875 166.785156 133.046875 168.421875 130.800781 169.589844 "/>
<path style=" stroke:none;fill-rule:nonzero;fill:rgb(96.469116%,54.119873%,44.309998%);fill-opacity:1;" d="M 132.117188 151.734375 C 132.164062 158.925781 131.421875 165.972656 128.285156 172.390625 C 127.902344 173.179688 127.679688 174.449219 128.539062 174.65625 C 128.773438 174.714844 129.023438 174.648438 129.253906 174.578125 C 131.363281 173.917969 133.242188 172.542969 134.503906 170.734375 C 136.238281 168.253906 136.757812 165.15625 137.230469 162.171875 C 137.703125 159.203125 138.175781 156.230469 138.648438 153.257812 C 138.417969 153.207031 138.183594 153.15625 137.953125 153.097656 C 136.359375 152.699219 134.125 151.875 132.117188 151.734375 "/>
<path style=" stroke:none;fill-rule:nonzero;fill:rgb(1.568604%,2.349854%,2.349854%);fill-opacity:1;" d="M 167.796875 93.207031 C 166.671875 93.347656 165.40625 91.964844 164.378906 92.429688 C 159.351562 94.71875 152.40625 98.191406 147.382812 100.476562 C 142.335938 102.769531 137.78125 105.363281 135.019531 110.0625 C 133.089844 113.34375 131.601562 144.285156 130.554688 155.605469 C 133.261719 155.65625 135.964844 155.707031 138.667969 155.757812 C 138.433594 159.289062 138.195312 162.820312 137.957031 166.347656 C 141.488281 166.65625 145.023438 166.964844 148.554688 167.273438 C 150.425781 151.105469 152.292969 134.9375 154.164062 118.773438 C 154.21875 118.292969 154.292969 117.777344 154.644531 117.441406 C 154.964844 117.132812 155.441406 117.046875 155.886719 116.976562 C 162.902344 115.855469 169.867188 114.417969 176.746094 112.667969 C 178.367188 112.253906 180.015625 111.8125 181.402344 110.894531 C 185.890625 107.929688 185.863281 101.644531 187.882812 96.75 C 182.210938 95.300781 176.453125 94.164062 170.644531 93.347656 C 169.703125 93.214844 168.742188 93.089844 167.796875 93.207031 "/>
<g clip-path="url(#clip2)" clip-rule="nonzero">
<path style=" stroke:none;fill-rule:nonzero;fill:rgb(1.568604%,2.349854%,2.349854%);fill-opacity:1;" d="M 203.839844 45.429688 C 202.660156 43.90625 201.0625 42.5625 200.640625 40.683594 C 200.234375 38.875 201.023438 37.039062 201.378906 35.222656 C 201.714844 33.46875 201.640625 31.609375 200.953125 29.964844 C 199.382812 26.203125 194.722656 24.304688 190.730469 25.1875 C 186.738281 26.070312 183.535156 29.253906 181.839844 32.964844 C 181.585938 33.515625 181.359375 34.089844 181.351562 34.695312 C 181.339844 35.234375 181.5 35.757812 181.621094 36.28125 C 182.34375 39.332031 181.824219 42.515625 181.53125 45.632812 C 181.242188 48.75 181.222656 52.078125 182.796875 54.789062 C 183.1875 55.460938 183.679688 56.085938 184.3125 56.535156 C 185.65625 57.492188 187.519531 57.519531 189.042969 56.886719 C 189.769531 56.585938 190.496094 56.136719 191.28125 56.230469 C 191.894531 56.304688 192.414062 56.699219 192.949219 57.007812 C 195.898438 58.710938 199.6875 57.835938 202.726562 56.289062 C 203.992188 55.644531 205.269531 54.820312 205.875 53.535156 C 206.457031 52.304688 206.3125 50.847656 205.933594 49.539062 C 205.507812 48.054688 204.789062 46.648438 203.839844 45.429688 "/>
</g>
<path style=" stroke:none;fill-rule:nonzero;fill:rgb(87.059021%,64.309692%,9.799194%);fill-opacity:1;" d="M 198.058594 58.734375 C 197.019531 57.183594 195.46875 56.066406 193.949219 54.984375 C 192.324219 53.824219 190.671875 52.648438 188.785156 51.988281 C 183.910156 50.285156 178.585938 52.300781 173.890625 54.4375 C 172.878906 54.894531 171.859375 55.367188 171.011719 56.082031 C 170.183594 56.78125 169.554688 57.679688 168.953125 58.578125 C 164.945312 64.554688 160.140625 70.960938 157.738281 77.742188 C 157.417969 78.644531 157.492188 80.480469 157.597656 81.433594 C 157.820312 83.503906 163.339844 85.628906 165.261719 84.800781 C 165.191406 87.640625 163.285156 89 163.214844 91.839844 C 163.210938 92.089844 163.207031 92.34375 163.300781 92.574219 C 163.46875 92.972656 163.886719 93.195312 164.277344 93.378906 C 165.933594 94.171875 167.597656 94.96875 169.367188 95.464844 C 172.53125 96.355469 175.90625 96.25 179.082031 97.09375 C 180.175781 97.382812 181.242188 97.785156 182.359375 97.9375 C 184.265625 98.203125 186.3125 97.757812 188.0625 98.554688 C 188.726562 96.996094 189.394531 95.4375 190.058594 93.878906 C 190.21875 93.5 190.390625 93.105469 190.710938 92.84375 C 191.277344 92.375 192.101562 92.464844 192.828125 92.582031 C 194.574219 92.859375 196.363281 93.136719 198.09375 92.785156 C 199.824219 92.433594 201.511719 91.316406 202.027344 89.632812 C 202.230469 88.960938 202.242188 88.246094 202.242188 87.546875 C 202.242188 79.652344 201.460938 71.761719 199.902344 64.019531 C 199.535156 62.179688 199.101562 60.296875 198.058594 58.734375 "/>
<path style=" stroke:none;fill-rule:nonzero;fill:rgb(96.469116%,54.119873%,44.309998%);fill-opacity:1;" d="M 54.609375 109.617188 C 51.605469 106.84375 47.773438 105.058594 43.800781 104.082031 C 42.542969 103.773438 40.933594 103.667969 40.234375 104.757812 L 39.019531 107.519531 C 39.417969 108.746094 40.519531 109.589844 41.527344 110.394531 C 44.472656 112.761719 47.109375 115.507812 49.347656 118.546875 C 49.640625 118.949219 49.9375 119.367188 50.039062 119.855469 C 50.195312 120.585938 49.890625 121.328125 49.601562 122.019531 C 43.410156 136.574219 38.644531 151.84375 36.960938 167.5625 C 38.183594 167.863281 40.320312 168.097656 41.542969 168.394531 C 43.203125 163.472656 52.230469 139.628906 55.117188 133.203125 C 56.046875 131.136719 56.976562 129.066406 57.730469 126.929688 C 58.703125 124.171875 59.386719 121.261719 59.164062 118.347656 C 58.847656 114.28125 57.613281 112.390625 54.609375 109.617188 "/>
<path style=" stroke:none;fill-rule:nonzero;fill:rgb(87.059021%,64.309692%,9.799194%);fill-opacity:1;" d="M 43.039062 176.9375 C 42.738281 176.144531 42.707031 175.273438 42.683594 174.421875 C 42.605469 171.910156 42.355469 169.523438 42.277344 167.007812 C 40.445312 167.09375 38.589844 166.679688 36.96875 165.816406 C 35.492188 169.546875 34.058594 173.160156 33.03125 177.035156 C 33.628906 177.277344 34.226562 177.519531 34.828125 177.757812 C 35.332031 176.542969 35.964844 175.375 36.707031 174.285156 C 36.835938 174.101562 37.003906 173.894531 37.230469 173.902344 C 37.476562 173.914062 37.632812 174.164062 37.726562 174.394531 C 38.460938 176.191406 38.296875 178.460938 39.738281 179.769531 C 40.085938 180.082031 40.5 180.308594 40.917969 180.523438 C 42.867188 181.519531 44.953125 182.257812 47.097656 182.714844 C 46.121094 181.40625 45.148438 180.101562 44.171875 178.796875 C 43.734375 178.210938 43.292969 177.621094 43.039062 176.9375 "/>
<path style=" stroke:none;fill-rule:nonzero;fill:rgb(96.469116%,54.119873%,44.309998%);fill-opacity:1;" d="M 59.835938 103.832031 C 56.3125 101.757812 52.1875 100.828125 48.09375 100.710938 C 46.800781 100.675781 45.203125 100.914062 44.753906 102.125 L 44.15625 105.082031 C 44.804688 106.199219 46.0625 106.789062 47.21875 107.363281 C 50.601562 109.050781 53.761719 111.175781 56.597656 113.671875 C 56.96875 114.003906 57.347656 114.351562 57.550781 114.804688 C 57.859375 115.488281 57.722656 116.277344 57.582031 117.011719 C 54.636719 132.546875 53.230469 148.476562 54.933594 164.191406 C 56.191406 164.226562 58.328125 164.003906 59.585938 164.035156 C 60.164062 158.875 63.90625 133.664062 65.355469 126.773438 C 65.824219 124.554688 66.292969 122.335938 66.574219 120.089844 C 66.9375 117.191406 66.988281 114.199219 66.144531 111.402344 C 64.96875 107.492188 63.363281 105.90625 59.835938 103.832031 "/>
<path style=" stroke:none;fill-rule:nonzero;fill:rgb(87.059021%,64.309692%,9.799194%);fill-opacity:1;" d="M 62.871094 172.066406 C 62.40625 171.351562 62.191406 170.511719 61.984375 169.6875 C 61.375 167.246094 60.625 164.964844 60.011719 162.527344 C 58.238281 162.996094 56.335938 162.984375 54.570312 162.484375 C 53.917969 166.441406 53.289062 170.277344 53.109375 174.28125 C 53.746094 174.390625 54.382812 174.5 55.019531 174.609375 C 55.257812 173.3125 55.625 172.039062 56.117188 170.816406 C 56.203125 170.605469 56.324219 170.371094 56.550781 170.332031 C 56.792969 170.289062 56.996094 170.503906 57.136719 170.707031 C 58.238281 172.304688 58.5625 174.5625 60.25 175.53125 C 60.652344 175.765625 61.109375 175.898438 61.5625 176.019531 C 63.679688 176.582031 65.875 176.863281 68.066406 176.851562 C 66.835938 175.78125 65.605469 174.710938 64.371094 173.644531 C 63.824219 173.164062 63.265625 172.679688 62.871094 172.066406 "/>
<path style=" stroke:none;fill-rule:nonzero;fill:rgb(96.469116%,54.119873%,44.309998%);fill-opacity:1;" d="M 64.050781 40.527344 C 64.652344 39.335938 65.09375 38.066406 65.359375 36.757812 C 64.71875 36.953125 64.328125 37.585938 64.042969 38.191406 C 63.761719 38.796875 63.5 39.460938 62.957031 39.851562 C 63.179688 38.457031 64.164062 37.246094 64.246094 35.835938 C 63.960938 35.765625 63.730469 36.066406 63.585938 36.324219 C 62.96875 37.445312 62.371094 38.578125 61.792969 39.722656 C 61.519531 38.410156 62.839844 37.125 62.480469 35.832031 C 61.273438 37.261719 60.617188 39.054688 59.984375 40.808594 C 59.703125 40.40625 59.738281 39.871094 59.609375 39.398438 C 59.476562 38.925781 58.976562 38.453125 58.542969 38.6875 C 58.664062 39.398438 58.691406 40.128906 58.621094 40.847656 C 58.515625 41.902344 58.234375 43.082031 58.863281 43.9375 C 58.550781 44.695312 58.238281 45.449219 57.925781 46.203125 C 59.035156 46.9375 60.300781 47.433594 61.609375 47.660156 C 62.683594 45.738281 63.722656 43.800781 64.761719 41.867188 C 65.347656 40.769531 65.941406 39.660156 66.21875 38.453125 C 65.21875 38.664062 64.992188 40.121094 64.050781 40.527344 "/>
<path style=" stroke:none;fill-rule:nonzero;fill:rgb(96.859741%,79.998779%,61.569214%);fill-opacity:1;" d="M 51.335938 56.808594 C 51.09375 57.265625 50.8125 57.753906 50.339844 57.972656 C 49.851562 58.199219 49.285156 58.082031 48.761719 57.960938 C 43.199219 56.660156 37.734375 54.917969 32.121094 53.851562 C 29.878906 53.425781 27.484375 53.128906 25.386719 54.019531 C 23.289062 54.910156 21.722656 57.417969 22.632812 59.5 C 23.351562 61.144531 25.226562 61.90625 26.941406 62.453125 C 35.027344 65.027344 43.523438 66.324219 52.011719 66.289062 C 52.878906 66.285156 53.769531 66.261719 54.582031 65.953125 C 56.582031 65.191406 57.535156 62.972656 58.28125 60.972656 C 60.015625 56.335938 61.746094 51.695312 63.476562 47.054688 C 61.328125 46.003906 59.058594 45.195312 56.726562 44.65625 C 55.222656 48.824219 53.417969 52.890625 51.335938 56.808594 "/>
<path style=" stroke:none;fill-rule:nonzero;fill:rgb(1.568604%,2.349854%,2.349854%);fill-opacity:1;" d="M 44.625 89.433594 C 41.753906 88.246094 38.257812 87.140625 37.339844 84.234375 C 37.253906 83.964844 37.171875 83.65625 36.917969 83.519531 C 36.710938 83.402344 36.453125 83.445312 36.21875 83.492188 C 31.3125 84.4375 26.40625 85.382812 21.5 86.324219 C 21.609375 89.640625 21.71875 92.953125 21.832031 96.265625 C 21.9375 99.40625 22.074219 102.667969 23.554688 105.457031 C 25.9375 109.941406 31.144531 112.144531 35.960938 114.007812 C 39.375 115.332031 42.789062 116.652344 46.199219 117.976562 C 50.367188 112.574219 55.878906 108.167969 62.128906 105.25 C 62.394531 105.125 62.679688 104.988281 62.804688 104.726562 C 63.015625 104.285156 62.648438 103.796875 62.3125 103.441406 C 57.101562 97.972656 51.671875 92.347656 44.625 89.433594 "/>
<path style=" stroke:none;fill-rule:nonzero;fill:rgb(85.099792%,26.269531%,13.729858%);fill-opacity:1;" d="M 35.738281 38.589844 C 35.695312 37.617188 35.648438 36.625 35.269531 35.726562 C 34.882812 34.792969 34.164062 34.039062 33.429688 33.34375 C 32.199219 32.1875 30.777344 31.097656 29.101562 30.867188 C 27.886719 30.699219 26.664062 31 25.476562 31.308594 C 23.628906 31.785156 21.757812 32.300781 20.144531 33.3125 C 18.527344 34.328125 17.179688 35.925781 16.925781 37.8125 C 16.753906 39.078125 17.074219 40.421875 16.601562 41.609375 C 16.035156 43.042969 14.441406 43.910156 13.980469 45.382812 C 13.550781 46.757812 14.253906 48.253906 15.203125 49.34375 C 17.238281 51.675781 20.3125 52.835938 23.339844 53.5 C 27.40625 54.386719 32.03125 54.417969 35.296875 51.847656 C 35.65625 51.566406 36.003906 51.238281 36.152344 50.808594 C 36.269531 50.476562 36.257812 50.113281 36.242188 49.761719 C 36.074219 46.035156 35.90625 42.3125 35.738281 38.589844 "/>
<path style=" stroke:none;fill-rule:nonzero;fill:rgb(1.568604%,2.349854%,2.349854%);fill-opacity:1;" d="M 188.789062 31.144531 C 187.015625 29.148438 184.082031 28.367188 181.464844 28.910156 C 178.847656 29.453125 176.566406 31.199219 175.070312 33.410156 C 174.132812 34.796875 173.464844 36.453125 173.640625 38.117188 C 173.785156 39.515625 174.511719 40.816406 174.574219 42.21875 C 174.597656 42.777344 174.519531 43.363281 174.746094 43.871094 C 174.945312 44.324219 175.351562 44.648438 175.746094 44.953125 C 177.367188 46.210938 179.097656 47.507812 181.136719 47.757812 C 182.226562 47.890625 183.328125 47.707031 184.410156 47.527344 C 185.328125 47.371094 186.269531 47.207031 187.0625 46.71875 C 187.917969 46.1875 188.503906 45.324219 189.066406 44.488281 C 190.199219 42.804688 191.367188 41.007812 191.472656 38.984375 C 191.527344 37.972656 191.304688 36.964844 191.046875 35.984375 C 190.589844 34.246094 189.984375 32.488281 188.789062 31.144531 "/>
<path style=" stroke:none;fill-rule:nonzero;fill:rgb(96.859741%,79.998779%,61.569214%);fill-opacity:1;" d="M 39.839844 65.785156 C 39.738281 64.890625 35.785156 55.253906 34.953125 54.722656 C 32.875 53.402344 28.089844 51.066406 25.671875 52.082031 C 23.253906 53.097656 21.34375 54.71875 19.257812 56.128906 C 17.316406 57.4375 15.082031 58.695312 14.242188 60.585938 C 13.6875 61.832031 13.832031 63.179688 14.015625 64.476562 C 15.136719 72.4375 17.488281 80.261719 21.007812 87.71875 C 21.148438 88.019531 21.304688 88.335938 21.628906 88.53125 C 22.050781 88.785156 22.640625 88.761719 23.179688 88.730469 C 28.441406 88.410156 33.699219 88.019531 38.949219 87.5625 C 39.316406 87.527344 39.707031 87.488281 39.996094 87.300781 C 40.347656 87.074219 40.636719 86.6875 40.535156 86.34375 C 37.890625 77.425781 40.863281 75.058594 39.839844 65.785156 "/>
<path style=" stroke:none;fill-rule:nonzero;fill:rgb(96.469116%,54.119873%,44.309998%);fill-opacity:1;" d="M 33.53125 36.46875 C 33.183594 35.8125 32.660156 35.289062 32.125 34.808594 C 31.464844 34.210938 30.746094 33.652344 29.933594 33.410156 C 28.972656 33.128906 27.96875 33.316406 27.011719 33.546875 C 26.023438 33.789062 25.019531 34.089844 24.226562 34.761719 C 23.332031 35.523438 22.792969 36.679688 22.382812 37.84375 C 22.042969 38.8125 21.769531 39.832031 21.777344 40.886719 C 21.785156 42.144531 22.1875 43.371094 22.636719 44.542969 C 23.40625 46.554688 24.390625 48.589844 26.007812 49.859375 C 26.683594 50.390625 27.449219 50.769531 28.230469 51.070312 C 28.925781 51.339844 29.652344 51.558594 30.378906 51.523438 C 31.828125 51.449219 33.078125 50.335938 33.757812 48.945312 C 34.4375 47.550781 34.625 45.914062 34.660156 44.304688 C 34.699219 42.332031 34.523438 40.34375 34.140625 38.394531 C 34.007812 37.730469 33.847656 37.0625 33.53125 36.46875 "/>
<path style=" stroke:none;fill-rule:nonzero;fill:rgb(96.469116%,54.119873%,44.309998%);fill-opacity:1;" d="M 30.734375 51.726562 C 30.695312 51.570312 30.65625 51.40625 30.558594 51.28125 C 30.425781 51.101562 30.210938 51.027344 30.007812 50.957031 C 27.882812 50.207031 25.917969 48.910156 24.332031 47.214844 L 24.136719 46.992188 C 24.648438 49.046875 24.511719 51.289062 23.824219 53.246094 C 24.933594 54.214844 29.015625 58.398438 30.367188 58.886719 C 31.722656 59.375 31.871094 56.691406 31.632812 55.46875 C 31.332031 54.222656 31.035156 52.972656 30.734375 51.726562 "/>
<path style=" stroke:none;fill-rule:nonzero;fill:rgb(96.469116%,54.119873%,44.309998%);fill-opacity:1;" d="M 21.53125 42.851562 C 20.65625 42.566406 19.644531 42.519531 18.925781 43.085938 C 18.0625 43.769531 17.9375 45.207031 18.5 46.207031 C 19.066406 47.210938 20.175781 47.777344 21.261719 47.847656 C 22.101562 47.90625 23.03125 47.632812 23.433594 46.863281 C 23.511719 46.714844 23.570312 46.554688 23.605469 46.386719 L 24.136719 46.992188 C 24.128906 46.960938 24.125 46.929688 24.117188 46.898438 C 23.652344 45.109375 23.421875 43.457031 21.53125 42.851562 "/>
<path style=" stroke:none;fill-rule:nonzero;fill:rgb(96.469116%,54.119873%,44.309998%);fill-opacity:1;" d="M 186.402344 36.734375 C 185.851562 35.632812 185.171875 34.558594 184.191406 33.917969 C 183.324219 33.351562 182.292969 33.183594 181.285156 33.066406 C 180.3125 32.957031 179.296875 32.898438 178.382812 33.296875 C 177.609375 33.636719 176.972656 34.28125 176.394531 34.953125 C 175.925781 35.496094 175.476562 36.078125 175.214844 36.769531 C 174.976562 37.394531 174.902344 38.074219 174.855469 38.746094 C 174.71875 40.71875 174.796875 42.707031 175.085938 44.652344 C 175.320312 46.238281 175.710938 47.832031 176.558594 49.121094 C 177.40625 50.414062 178.78125 51.355469 180.226562 51.246094 C 180.945312 51.191406 181.636719 50.886719 182.289062 50.53125 C 183.019531 50.136719 183.730469 49.664062 184.332031 49.054688 C 185.769531 47.597656 186.488281 45.46875 186.992188 43.382812 C 187.289062 42.167969 187.53125 40.90625 187.382812 39.664062 C 187.257812 38.621094 186.859375 37.648438 186.402344 36.734375 "/>
<path style=" stroke:none;fill-rule:nonzero;fill:rgb(96.469116%,54.119873%,44.309998%);fill-opacity:1;" d="M 180.519531 50.640625 C 180.328125 50.738281 180.125 50.839844 180.015625 51.03125 C 179.9375 51.167969 179.914062 51.332031 179.898438 51.492188 C 179.757812 52.761719 179.621094 54.035156 179.480469 55.304688 C 179.402344 56.539062 179.882812 59.171875 181.160156 58.519531 C 182.433594 57.867188 185.9375 53.222656 186.914062 52.128906 C 185.988281 50.28125 185.574219 48.085938 185.820312 45.992188 L 185.65625 46.238281 C 184.300781 48.109375 182.523438 49.632812 180.519531 50.640625 "/>
<path style=" stroke:none;fill-rule:nonzero;fill:rgb(96.469116%,54.119873%,44.309998%);fill-opacity:1;" d="M 190.476562 41.480469 C 189.695312 41.007812 188.699219 41.1875 187.875 41.570312 C 186.082031 42.410156 186.0625 44.070312 185.828125 45.894531 C 185.824219 45.925781 185.824219 45.960938 185.820312 45.992188 L 186.269531 45.328125 C 186.328125 45.484375 186.402344 45.636719 186.496094 45.773438 C 186.992188 46.480469 187.945312 46.636719 188.765625 46.476562 C 189.832031 46.269531 190.855469 45.570312 191.289062 44.511719 C 191.722656 43.449219 191.414062 42.046875 190.476562 41.480469 "/>
<path style=" stroke:none;fill-rule:nonzero;fill:rgb(96.469116%,54.119873%,44.309998%);fill-opacity:1;" d="M 191.765625 77.960938 C 191.132812 77.738281 190.40625 77.765625 189.703125 77.808594 C 190.574219 77.390625 191.582031 77.199219 192.488281 77.300781 C 192.78125 77.332031 193.097656 77.390625 193.371094 77.238281 C 193.265625 76.96875 192.984375 76.816406 192.71875 76.683594 C 191.917969 76.28125 191.011719 75.863281 190.074219 76.121094 C 189.691406 76.226562 189.34375 76.4375 188.992188 76.632812 C 188.125 77.125 187.203125 77.578125 186.242188 77.664062 C 185.925781 77.695312 185.609375 77.683594 185.296875 77.742188 C 184.996094 77.796875 184.707031 77.910156 184.425781 78.042969 C 183.882812 78.300781 183.386719 78.644531 182.957031 79.070312 C 182.847656 79.179688 182.738281 79.289062 182.632812 79.402344 C 181.789062 80.3125 181.761719 81.628906 182.519531 82.441406 C 182.726562 82.660156 182.921875 82.867188 183.085938 82.972656 C 183.949219 83.527344 185.210938 83.210938 186.203125 82.664062 C 186.59375 82.453125 186.984375 82.199219 187.410156 82.160156 C 188.070312 82.09375 188.585938 82.539062 189.097656 82.878906 C 189.742188 83.304688 190.59375 83.601562 191.386719 83.277344 C 191.039062 82.644531 190.28125 82.363281 189.730469 81.894531 C 189.175781 81.421875 188.777344 80.714844 188.039062 80.539062 C 188.816406 80.421875 189.558594 80.546875 190.199219 80.90625 C 190.625 81.144531 190.820312 81.132812 191.21875 81.40625 C 191.707031 81.742188 191.753906 81.9375 192.34375 82.03125 C 192.597656 82.070312 192.8125 81.765625 192.667969 81.566406 C 191.882812 80.476562 191.5625 80.164062 190.378906 79.480469 C 190.195312 79.378906 190.007812 79.277344 189.800781 79.21875 C 189.589844 79.160156 189.421875 79.113281 189.261719 79.109375 C 189.085938 79.152344 188.90625 79.203125 188.710938 79.277344 C 188.925781 79.152344 189.089844 79.109375 189.261719 79.109375 C 189.992188 78.941406 190.59375 79.035156 191.328125 79.269531 C 192.082031 79.507812 192.78125 79.871094 193.535156 80.109375 C 193.695312 80.160156 193.855469 79.984375 193.769531 79.847656 C 193.265625 79.046875 192.675781 78.277344 191.765625 77.960938 "/>
<path style=" stroke:none;fill-rule:nonzero;fill:rgb(96.469116%,54.119873%,44.309998%);fill-opacity:1;" d="M 175.648438 75.460938 C 175.21875 75.039062 174.722656 74.695312 174.179688 74.433594 C 173.898438 74.304688 173.609375 74.1875 173.3125 74.136719 C 172.996094 74.078125 172.679688 74.085938 172.363281 74.058594 C 171.402344 73.96875 170.480469 73.519531 169.613281 73.027344 C 169.265625 72.828125 168.914062 72.621094 168.53125 72.515625 C 167.59375 72.253906 166.691406 72.671875 165.882812 73.078125 C 165.621094 73.210938 165.339844 73.359375 165.234375 73.632812 C 165.507812 73.78125 165.824219 73.726562 166.117188 73.691406 C 167.023438 73.589844 168.03125 73.785156 168.898438 74.199219 C 168.199219 74.15625 167.476562 74.128906 166.839844 74.351562 C 165.929688 74.671875 165.339844 75.441406 164.839844 76.238281 C 164.753906 76.375 164.910156 76.554688 165.070312 76.503906 C 165.824219 76.265625 166.523438 75.902344 167.277344 75.660156 C 168.011719 75.425781 168.613281 75.332031 169.34375 75.503906 C 169.515625 75.5 169.679688 75.542969 169.894531 75.671875 C 169.703125 75.59375 169.519531 75.542969 169.34375 75.503906 C 169.183594 75.503906 169.015625 75.550781 168.804688 75.609375 C 168.597656 75.671875 168.410156 75.769531 168.226562 75.875 C 167.042969 76.558594 166.726562 76.871094 165.9375 77.957031 C 165.792969 78.15625 166.007812 78.460938 166.265625 78.421875 C 166.851562 78.332031 166.898438 78.136719 167.386719 77.800781 C 167.785156 77.523438 167.980469 77.535156 168.40625 77.296875 C 169.046875 76.9375 169.789062 76.8125 170.566406 76.933594 C 169.828125 77.109375 169.433594 77.8125 168.875 78.285156 C 168.324219 78.757812 167.566406 79.035156 167.21875 79.667969 C 168.007812 79.992188 168.859375 79.699219 169.507812 79.269531 C 170.019531 78.929688 170.539062 78.488281 171.195312 78.550781 C 171.621094 78.589844 172.011719 78.84375 172.402344 79.058594 C 173.394531 79.601562 174.65625 79.921875 175.515625 79.367188 C 175.683594 79.261719 175.878906 79.050781 176.085938 78.832031 C 176.84375 78.023438 176.816406 76.707031 175.972656 75.796875 C 175.867188 75.683594 175.761719 75.574219 175.648438 75.460938 "/>
<path style=" stroke:none;fill-rule:nonzero;fill:rgb(12.159729%,38.038635%,21.569824%);fill-opacity:1;" d="M 110.886719 64.25 C 108.964844 67.875 107.050781 71.5 105.128906 75.125 C 107.398438 62.15625 110.648438 49.390625 114.835938 36.996094 C 115.863281 33.960938 116.925781 30.480469 115.523438 27.625 C 111.21875 29.625 108.652344 34.402344 106.667969 39 C 100.058594 54.292969 96.503906 71.917969 100.753906 88.164062 C 100.992188 89.078125 101.503906 90.179688 102.378906 90.101562 C 102.851562 90.058594 103.226562 89.65625 103.546875 89.273438 C 110.636719 80.851562 115.320312 70.078125 116.804688 58.789062 C 114.085938 58.804688 112.238281 61.691406 110.886719 64.25 "/>
<path style=" stroke:none;fill-rule:nonzero;fill:rgb(12.159729%,38.038635%,21.569824%);fill-opacity:1;" d="M 99.464844 48.828125 C 99.359375 47.828125 99.042969 46.597656 98.128906 46.417969 C 95.9375 49.292969 94.699219 52.996094 94.679688 56.722656 C 94.660156 60.066406 95.582031 63.464844 94.839844 66.710938 C 93.109375 63.554688 91.324219 60.332031 88.714844 57.992188 C 88.828125 69.804688 93.703125 81.476562 101.8125 89.363281 C 102.742188 86.636719 102.046875 83.617188 101.542969 80.761719 C 99.695312 70.269531 100.59375 59.4375 99.464844 48.828125 "/>
<path style=" stroke:none;fill-rule:nonzero;fill:rgb(87.059021%,64.309692%,9.799194%);fill-opacity:1;" d="M 97.1875 87.199219 C 97.519531 89.777344 97.933594 92.347656 98.433594 94.898438 C 98.453125 94.988281 98.476562 95.082031 98.546875 95.132812 C 98.601562 95.167969 98.664062 95.171875 98.726562 95.175781 C 99.539062 95.226562 100.355469 95.28125 101.167969 95.332031 C 102.800781 95.433594 104.441406 95.535156 106.066406 95.355469 C 106.207031 95.339844 106.371094 95.3125 106.457031 95.195312 C 106.507812 95.125 106.523438 95.03125 106.535156 94.945312 C 106.9375 92.308594 107.335938 89.675781 107.734375 87.042969 C 105.46875 87.125 103.199219 87.210938 100.933594 87.292969 C 99.683594 87.339844 98.425781 87.386719 97.1875 87.199219 "/>
<path style=" stroke:none;fill-rule:nonzero;fill:rgb(96.469116%,54.119873%,44.309998%);fill-opacity:1;" d="M 59.128906 74.453125 C 58.507812 74.703125 57.863281 75.011719 57.199219 74.925781 C 58.316406 74.058594 59.863281 73.839844 60.890625 72.867188 C 60.726562 72.621094 60.351562 72.683594 60.070312 72.777344 C 58.851562 73.175781 57.640625 73.597656 56.4375 74.042969 C 57.132812 72.898438 58.976562 72.851562 59.59375 71.664062 C 57.738281 71.890625 56.03125 72.757812 54.371094 73.609375 C 54.441406 73.125 54.832031 72.757812 55.058594 72.320312 C 55.285156 71.886719 55.242188 71.203125 54.765625 71.078125 C 54.367188 71.683594 53.886719 72.234375 53.34375 72.710938 C 52.546875 73.414062 51.535156 74.085938 51.410156 75.140625 C 50.664062 75.480469 49.921875 75.820312 49.175781 76.160156 C 49.488281 77.449219 50.070312 78.675781 50.878906 79.730469 C 52.976562 79.054688 55.058594 78.34375 57.144531 77.628906 C 58.320312 77.226562 59.515625 76.816406 60.546875 76.121094 C 59.667969 75.59375 58.507812 76.507812 57.539062 76.167969 C 58.792969 75.703125 59.984375 75.074219 61.074219 74.296875 C 60.472656 74.003906 59.75 74.199219 59.128906 74.453125 "/>
<path style=" stroke:none;fill-rule:nonzero;fill:rgb(96.859741%,79.998779%,61.569214%);fill-opacity:1;" d="M 37.105469 79.445312 C 36.613281 79.617188 36.074219 79.785156 35.578125 79.621094 C 35.070312 79.457031 34.730469 78.988281 34.433594 78.542969 C 31.25 73.8125 28.441406 68.824219 25.058594 64.230469 C 23.710938 62.398438 22.160156 60.550781 20.015625 59.777344 C 17.871094 59.007812 15.011719 59.777344 14.253906 61.921875 C 13.65625 63.613281 14.507812 65.445312 15.390625 67.007812 C 19.550781 74.386719 24.878906 81.105469 31.121094 86.84375 C 31.757812 87.433594 32.425781 88.023438 33.230469 88.347656 C 35.214844 89.144531 37.429688 88.171875 39.34375 87.214844 C 43.78125 84.996094 48.21875 82.773438 52.65625 80.554688 C 51.804688 78.324219 50.695312 76.191406 49.359375 74.214844 C 45.40625 76.242188 41.308594 77.992188 37.105469 79.445312 "/>
<path style=" stroke:none;fill-rule:nonzero;fill:rgb(85.099792%,26.269531%,13.729858%);fill-opacity:1;" d="M 32.84375 34.621094 C 32.234375 34.007812 31.554688 33.453125 30.777344 33.082031 C 28.214844 31.871094 25.199219 32.855469 22.542969 33.851562 C 22.101562 34.015625 21.644531 34.195312 21.328125 34.542969 C 20.976562 34.925781 20.851562 35.457031 20.738281 35.964844 C 20.484375 37.121094 20.230469 38.289062 20.242188 39.472656 C 20.253906 40.652344 20.558594 41.871094 21.3125 42.785156 C 21.40625 42.898438 21.515625 43.007812 21.65625 43.042969 C 21.84375 43.085938 22.027344 42.980469 22.1875 42.878906 C 24.027344 41.695312 25.46875 39.917969 26.242188 37.878906 C 26.421875 38.539062 26.71875 39.277344 27.367188 39.507812 C 28.066406 39.753906 28.832031 39.265625 29.253906 38.65625 C 29.675781 38.042969 29.882812 37.304688 30.300781 36.691406 C 30.875 37.8125 31.679688 38.816406 32.644531 39.628906 C 33.140625 40.046875 33.804688 40.433594 34.40625 40.1875 C 35.175781 39.871094 35.234375 38.796875 35 38 C 34.613281 36.707031 33.796875 35.578125 32.84375 34.621094 "/>
<path style=" stroke:none;fill-rule:nonzero;fill:rgb(1.568604%,2.349854%,2.349854%);fill-opacity:1;" d="M 56.386719 130.867188 L 56.105469 130.8125 C 56.449219 129.078125 57.019531 127.347656 57.570312 125.675781 C 58.574219 122.625 59.613281 119.46875 59.257812 116.269531 C 58.992188 113.855469 57.917969 111.554688 56.242188 109.789062 L 56.453125 109.59375 C 58.171875 111.398438 59.269531 113.761719 59.546875 116.238281 C 59.910156 119.496094 58.859375 122.6875 57.84375 125.769531 C 57.296875 127.429688 56.726562 129.148438 56.386719 130.867188 "/>
<path style=" stroke:none;fill-rule:nonzero;fill:rgb(1.568604%,2.349854%,2.349854%);fill-opacity:1;" d="M 29.585938 63.179688 L 29.417969 62.914062 C 27.578125 59.996094 25.488281 57.199219 23.214844 54.601562 L 23.433594 54.414062 C 25.648438 56.941406 27.683594 59.65625 29.492188 62.492188 L 30.152344 60.320312 C 30.191406 60.195312 30.296875 59.855469 30.59375 59.800781 C 30.753906 59.773438 30.902344 59.851562 31 59.898438 L 33.367188 61.117188 C 33.488281 59 33.328125 56.875 32.882812 54.804688 L 33.164062 54.742188 C 33.628906 56.914062 33.789062 59.140625 33.640625 61.355469 L 33.625 61.574219 L 30.867188 60.15625 C 30.78125 60.109375 30.707031 60.070312 30.640625 60.085938 C 30.558594 60.097656 30.492188 60.199219 30.429688 60.40625 L 29.585938 63.179688 "/>
<path style=" stroke:none;fill-rule:nonzero;fill:rgb(1.568604%,2.349854%,2.349854%);fill-opacity:1;" d="M 34.625 80.777344 C 34.414062 79.675781 34.070312 78.597656 33.605469 77.578125 C 32.996094 76.234375 32.171875 74.976562 31.371094 73.757812 L 25.988281 65.554688 C 24.195312 62.820312 22.019531 59.871094 18.855469 59.4375 L 18.894531 59.152344 C 22.179688 59.601562 24.402344 62.609375 26.230469 65.394531 L 31.613281 73.601562 C 32.417969 74.828125 33.25 76.09375 33.867188 77.457031 C 34.222656 78.238281 34.507812 79.054688 34.722656 79.886719 C 34.773438 79.761719 34.835938 79.640625 34.917969 79.53125 L 35.058594 79.339844 L 35.488281 80.199219 C 36.402344 79.652344 37.449219 79.339844 38.515625 79.300781 L 38.527344 79.585938 C 37.457031 79.628906 36.410156 79.953125 35.507812 80.527344 L 35.371094 80.613281 L 35.023438 79.917969 C 34.90625 80.167969 34.863281 80.457031 34.910156 80.726562 L 34.625 80.777344 "/>
<path style=" stroke:none;fill-rule:nonzero;fill:rgb(1.568604%,2.349854%,2.349854%);fill-opacity:1;" d="M 30.660156 87.613281 C 25.808594 83.152344 21.503906 78.105469 17.867188 72.605469 L 18.109375 72.449219 C 21.730469 77.925781 26.019531 82.957031 30.855469 87.402344 L 30.660156 87.613281 "/>
<path style=" stroke:none;fill-rule:nonzero;fill:rgb(1.568604%,2.349854%,2.349854%);fill-opacity:1;" d="M 39.589844 64.175781 C 39.230469 63.816406 39.195312 63.285156 39.164062 62.8125 C 39.015625 60.542969 38.296875 58.359375 37.078125 56.46875 L 37.324219 56.3125 C 38.5625 58.246094 39.300781 60.476562 39.449219 62.765625 C 39.480469 63.234375 39.511719 63.691406 39.792969 63.96875 L 39.589844 64.175781 "/>
<path style=" stroke:none;fill-rule:nonzero;fill:rgb(1.568604%,2.349854%,2.349854%);fill-opacity:1;" d="M 62.546875 48.679688 C 60.269531 48.175781 58.042969 47.421875 55.929688 46.4375 L 56.050781 46.179688 C 58.144531 47.152344 60.351562 47.898438 62.609375 48.398438 L 62.546875 48.679688 "/>
<path style=" stroke:none;fill-rule:nonzero;fill:rgb(1.568604%,2.349854%,2.349854%);fill-opacity:1;" d="M 50.730469 81.121094 C 49.601562 79.050781 48.425781 76.964844 47.238281 74.921875 L 47.492188 74.777344 C 48.675781 76.820312 49.851562 78.910156 50.984375 80.984375 L 50.730469 81.121094 "/>
<path style=" stroke:none;fill-rule:nonzero;fill:rgb(1.568604%,2.349854%,2.349854%);fill-opacity:1;" d="M 20.773438 42.527344 C 19.496094 41.386719 19.082031 39.425781 19.792969 37.867188 L 20.058594 37.988281 C 19.40625 39.410156 19.796875 41.269531 20.96875 42.3125 L 20.773438 42.527344 "/>
<path style=" stroke:none;fill-rule:nonzero;fill:rgb(1.568604%,2.349854%,2.349854%);fill-opacity:1;" d="M 19.808594 42.394531 C 19.375 42.082031 19.042969 41.632812 18.882812 41.128906 L 19.15625 41.039062 C 19.300781 41.488281 19.59375 41.886719 19.976562 42.160156 L 19.808594 42.394531 "/>
<path style=" stroke:none;fill-rule:nonzero;fill:rgb(1.568604%,2.349854%,2.349854%);fill-opacity:1;" d="M 22.707031 46.039062 C 22.054688 45.222656 21.085938 44.675781 20.046875 44.542969 L 20.085938 44.257812 C 21.195312 44.402344 22.234375 44.984375 22.933594 45.859375 L 22.707031 46.039062 "/>
<path style=" stroke:none;fill-rule:nonzero;fill:rgb(1.568604%,2.349854%,2.349854%);fill-opacity:1;" d="M 21.210938 46.640625 L 20.976562 46.472656 C 21.195312 46.160156 21.328125 45.832031 21.472656 45.429688 C 21.484375 45.398438 21.503906 45.304688 21.523438 45.214844 C 21.566406 44.996094 21.59375 44.898438 21.730469 44.921875 C 21.871094 44.945312 21.855469 45.070312 21.839844 45.207031 L 21.820312 45.203125 C 21.816406 45.222656 21.8125 45.25 21.804688 45.273438 C 21.785156 45.378906 21.757812 45.496094 21.746094 45.53125 C 21.597656 45.933594 21.453125 46.296875 21.210938 46.640625 "/>
<path style=" stroke:none;fill-rule:nonzero;fill:rgb(1.568604%,2.349854%,2.349854%);fill-opacity:1;" d="M 30.363281 51.914062 C 28.191406 51.875 26.082031 50.847656 24.71875 49.164062 L 24.941406 48.980469 C 26.253906 50.601562 28.28125 51.589844 30.367188 51.625 L 30.363281 51.914062 "/>
<path style=" stroke:none;fill-rule:nonzero;fill:rgb(1.568604%,2.349854%,2.349854%);fill-opacity:1;" d="M 34.257812 38.261719 C 34.191406 37.246094 33.96875 36.25 33.597656 35.304688 L 33.867188 35.199219 C 34.25 36.175781 34.476562 37.199219 34.542969 38.246094 L 34.257812 38.261719 "/>
<path style=" stroke:none;fill-rule:nonzero;fill:rgb(12.159729%,38.038635%,21.569824%);fill-opacity:1;" d="M 42.996094 104.03125 C 42.007812 103.339844 40.78125 103.105469 39.589844 102.902344 C 33.222656 101.820312 26.800781 101.058594 20.355469 100.625 C 19.40625 100.5625 18.335938 100.550781 17.65625 101.210938 C 16.753906 102.085938 17.121094 103.710938 18.070312 104.535156 C 19.023438 105.359375 20.332031 105.59375 21.574219 105.800781 C 27.414062 106.769531 33.253906 107.734375 39.089844 108.703125 C 40.058594 108.863281 41.054688 109.023438 42.019531 108.84375 C 42.984375 108.664062 43.933594 108.070312 44.257812 107.144531 C 44.65625 106.011719 43.984375 104.722656 42.996094 104.03125 "/>
<path style=" stroke:none;fill-rule:nonzero;fill:rgb(1.568604%,2.349854%,2.349854%);fill-opacity:1;" d="M 180.996094 51.371094 L 180.933594 51.09375 C 182.5 50.730469 183.949219 49.78125 184.90625 48.492188 L 185.136719 48.664062 C 184.136719 50.007812 182.628906 50.996094 180.996094 51.371094 "/>
<path style=" stroke:none;fill-rule:nonzero;fill:rgb(1.568604%,2.349854%,2.349854%);fill-opacity:1;" d="M 187.621094 44.644531 L 187.386719 44.476562 C 188.015625 43.589844 188.933594 42.917969 189.972656 42.589844 L 190.0625 42.863281 C 189.082031 43.175781 188.214844 43.804688 187.621094 44.644531 "/>
<path style=" stroke:none;fill-rule:nonzero;fill:rgb(1.568604%,2.349854%,2.349854%);fill-opacity:1;" d="M 188.808594 45.144531 C 188.296875 44.882812 187.949219 44.339844 187.921875 43.769531 L 188.207031 43.753906 C 188.230469 44.226562 188.519531 44.671875 188.941406 44.886719 L 188.808594 45.144531 "/>
<path style=" stroke:none;fill-rule:nonzero;fill:rgb(1.568604%,2.349854%,2.349854%);fill-opacity:1;" d="M 180.648438 60.324219 C 180.492188 60.324219 180.332031 60.304688 180.171875 60.265625 C 179.511719 60.101562 178.925781 59.5625 178.605469 58.820312 C 178.316406 58.160156 178.25 57.429688 178.222656 56.742188 C 178.164062 55.347656 178.238281 53.941406 178.441406 52.558594 L 178.726562 52.601562 C 178.527344 53.964844 178.453125 55.351562 178.507812 56.726562 C 178.539062 57.390625 178.601562 58.089844 178.867188 58.703125 C 179.15625 59.367188 179.667969 59.84375 180.242188 59.984375 C 181.152344 60.210938 182.101562 59.601562 182.730469 59.121094 C 185.226562 57.222656 187.214844 54.707031 188.476562 51.84375 L 188.738281 51.960938 C 187.457031 54.871094 185.441406 57.425781 182.90625 59.351562 C 182.332031 59.785156 181.511719 60.324219 180.648438 60.324219 "/>
<path style=" stroke:none;fill-rule:nonzero;fill:rgb(1.568604%,2.349854%,2.349854%);fill-opacity:1;" d="M 166.210938 85.082031 L 166.210938 84.792969 C 170.546875 84.785156 174.890625 84.296875 179.117188 83.34375 L 179.179688 83.628906 C 174.933594 84.585938 170.570312 85.074219 166.210938 85.082031 "/>
<path style=" stroke:none;fill-rule:nonzero;fill:rgb(1.568604%,2.349854%,2.349854%);fill-opacity:1;" d="M 190.316406 90.980469 C 187.011719 90.183594 183.964844 88.335938 181.738281 85.773438 L 181.957031 85.585938 C 184.144531 88.101562 187.136719 89.917969 190.382812 90.699219 L 190.316406 90.980469 "/>
<path style=" stroke:none;fill-rule:nonzero;fill:rgb(1.568604%,2.349854%,2.349854%);fill-opacity:1;" d="M 181.3125 78.429688 L 177.640625 78.070312 L 177.667969 77.785156 L 181.339844 78.144531 L 181.3125 78.429688 "/>
<path style=" stroke:none;fill-rule:nonzero;fill:rgb(1.568604%,2.349854%,2.349854%);fill-opacity:1;" d="M 164.8125 77.121094 C 164.21875 77.027344 163.605469 76.980469 163.007812 76.992188 L 163.003906 76.707031 C 163.625 76.699219 164.25 76.738281 164.859375 76.835938 L 164.8125 77.121094 "/>
<path style=" stroke:none;fill-rule:nonzero;fill:rgb(1.568604%,2.349854%,2.349854%);fill-opacity:1;" d="M 195.347656 86.199219 C 194.089844 84.976562 192.730469 83.832031 191.304688 82.800781 L 191.472656 82.570312 C 192.507812 83.3125 193.503906 84.121094 194.457031 84.972656 L 194.003906 84.34375 L 194.410156 84.464844 C 195.089844 84.667969 195.71875 84.996094 196.273438 85.433594 L 196.097656 85.660156 C 195.691406 85.34375 195.234375 85.078125 194.753906 84.890625 L 195.566406 86.011719 L 195.347656 86.199219 "/>
<path style=" stroke:none;fill-rule:nonzero;fill:rgb(1.568604%,2.349854%,2.349854%);fill-opacity:1;" d="M 192.710938 74.5 L 192.433594 74.429688 C 193.574219 69.867188 195.195312 65.410156 197.25 61.171875 L 197.511719 61.296875 C 195.464844 65.515625 193.851562 69.957031 192.710938 74.5 "/>
<path style=" stroke:none;fill-rule:nonzero;fill:rgb(1.568604%,2.349854%,2.349854%);fill-opacity:1;" d="M 168.839844 70.625 L 168.558594 70.566406 L 171.257812 57.636719 L 171.539062 57.695312 L 168.839844 70.625 "/>
</g>
</svg>
