<?xml version="1.0" encoding="UTF-8"?>
<svg xmlns="http://www.w3.org/2000/svg" xmlns:xlink="http://www.w3.org/1999/xlink" width="210pt" height="209.999996pt" viewBox="0 0 210 209.999996" version="1.2">
<defs>
<clipPath id="clip1">
  <path d="M 150 192 L 161.535156 192 L 161.535156 204.148438 L 150 204.148438 Z M 150 192 "/>
</clipPath>
<clipPath id="clip2">
  <path d="M 116 6.148438 L 133 6.148438 L 133 29 L 116 29 Z M 116 6.148438 "/>
</clipPath>
</defs>
<g id="surface1">
<g clip-path="url(#clip1)" clip-rule="nonzero">
<path style=" stroke:none;fill-rule:nonzero;fill:rgb(14.118958%,24.708557%,47.059631%);fill-opacity:1;" d="M 157.226562 192.277344 C 159.742188 191.453125 161.667969 194.078125 161.667969 194.078125 C 161.667969 194.078125 159.800781 202.640625 156.941406 203.304688 C 153.777344 204.035156 150.761719 204.441406 150.621094 203.265625 C 150.578125 202.910156 153.339844 201.167969 153.945312 200.117188 C 154.550781 199.070312 154.382812 196.898438 154.484375 195.679688 C 154.753906 192.421875 155.425781 192.863281 157.226562 192.277344 "/>
</g>
<path style=" stroke:none;fill-rule:nonzero;fill:rgb(14.118958%,24.708557%,47.059631%);fill-opacity:1;" d="M 105.777344 196.011719 C 105.777344 196.011719 107.34375 201.371094 104.777344 201.6875 C 102.210938 202 90.433594 204.226562 90.457031 201.824219 C 90.460938 201.269531 95.875 198.207031 99.664062 196.46875 C 102.824219 195.015625 105.777344 196.011719 105.777344 196.011719 "/>
<path style=" stroke:none;fill-rule:nonzero;fill:rgb(83.139038%,94.509888%,98.81897%);fill-opacity:1;" d="M 62.261719 64.007812 C 62.8125 64.074219 64.171875 64.230469 64.695312 64.402344 C 65.179688 64.5625 65.542969 65.066406 65.738281 65.382812 L 68.976562 64.480469 L 70.476562 67.300781 L 66.34375 68.253906 C 65.199219 68.742188 62.726562 68.855469 62.296875 68.773438 C 61.890625 68.695312 61.585938 68.605469 61.339844 68.515625 C 59.675781 68.027344 58.957031 67.714844 57.71875 67.066406 C 57.132812 66.761719 57.007812 66.324219 57.125 66.027344 C 57.261719 65.671875 58.003906 65.964844 58.277344 66.0625 C 59.152344 66.359375 58.503906 66.277344 60.023438 66.578125 C 60.484375 66.65625 60.925781 66.742188 61.207031 66.769531 C 61.59375 66.804688 62.273438 66.464844 62.621094 66.230469 C 62.949219 66.007812 63.269531 65.828125 63.574219 65.675781 C 63.113281 65.40625 62.109375 65.136719 61.886719 64.503906 C 61.765625 64.167969 62.054688 63.984375 62.261719 64.007812 "/>
<path style=" stroke:none;fill-rule:nonzero;fill:rgb(14.118958%,24.708557%,47.059631%);fill-opacity:1;" d="M 130.570312 36.730469 C 127.132812 50.785156 102.214844 63.492188 98.242188 64.828125 C 95.09375 65.886719 89.695312 62.339844 93.410156 58.191406 C 94.601562 56.871094 118.839844 36.121094 120.371094 35.328125 "/>
<path style=" stroke:none;fill-rule:nonzero;fill:rgb(14.118958%,24.708557%,47.059631%);fill-opacity:1;" d="M 98.242188 64.828125 C 95.570312 67.285156 74.191406 67.371094 70.050781 68.253906 C 68.605469 68.566406 68.660156 69.613281 67.449219 68.640625 C 66.566406 67.933594 66.039062 66.5625 65.785156 65.441406 C 65.671875 64.949219 65.570312 64.1875 65.757812 63.722656 C 66.039062 63.03125 67.4375 63.410156 68.054688 63.085938 C 70.484375 61.8125 95.277344 55.597656 96.953125 56.9375 C 97.800781 57.609375 98.570312 59.417969 98.988281 60.371094 C 99.613281 61.8125 99.277344 63.878906 98.242188 64.828125 "/>
<path style=" stroke:none;fill-rule:nonzero;fill:rgb(96.469116%,72.938538%,10.198975%);fill-opacity:1;" d="M 51.449219 73.804688 C 54.199219 90.976562 70.261719 102.660156 87.332031 99.890625 C 104.402344 97.128906 116.007812 80.964844 113.261719 63.792969 C 110.511719 46.617188 94.445312 34.933594 77.382812 37.699219 C 60.3125 40.464844 48.703125 56.632812 51.449219 73.804688 "/>
<path style=" stroke:none;fill-rule:nonzero;fill:rgb(96.078491%,47.44873%,18.03894%);fill-opacity:1;" d="M 56.753906 72.945312 C 59.03125 87.171875 72.339844 96.847656 86.480469 94.554688 C 100.613281 92.265625 110.230469 78.875 107.957031 64.652344 C 105.679688 50.421875 92.375 40.746094 78.234375 43.039062 C 64.09375 45.328125 54.480469 58.71875 56.753906 72.945312 "/>
<path style=" stroke:none;fill-rule:nonzero;fill:rgb(96.469116%,72.938538%,10.198975%);fill-opacity:1;" d="M 59.519531 72.496094 C 61.546875 85.1875 73.421875 93.820312 86.03125 91.773438 C 98.644531 89.730469 107.222656 77.789062 105.191406 65.097656 C 103.160156 52.40625 91.289062 43.777344 78.679688 45.820312 C 66.066406 47.859375 57.488281 59.808594 59.519531 72.496094 "/>
<path style=" stroke:none;fill-rule:nonzero;fill:rgb(96.078491%,47.44873%,18.03894%);fill-opacity:1;" d="M 82.167969 68.105469 C 85.007812 67.414062 86.882812 65.066406 86.355469 62.871094 C 85.828125 60.671875 83.089844 59.449219 80.253906 60.136719 C 79.035156 60.4375 77.933594 61.058594 77.15625 61.894531 C 76.742188 62.335938 76.011719 62.441406 75.523438 62.125 C 75.035156 61.8125 74.976562 61.199219 75.390625 60.753906 C 76.507812 59.5625 78.074219 58.671875 79.796875 58.253906 C 83.890625 57.257812 87.847656 59.078125 88.628906 62.316406 C 89.40625 65.554688 86.710938 68.996094 82.621094 69.992188 C 79.785156 70.683594 77.90625 73.03125 78.433594 75.226562 C 78.964844 77.421875 81.703125 78.648438 84.539062 77.957031 C 85.8125 77.648438 86.945312 76.988281 87.730469 76.097656 C 88.132812 75.644531 88.859375 75.523438 89.363281 75.824219 C 89.863281 76.125 89.941406 76.734375 89.542969 77.1875 C 88.414062 78.460938 86.800781 79.402344 84.992188 79.84375 C 80.902344 80.839844 76.941406 79.015625 76.164062 75.78125 C 75.386719 72.542969 78.078125 69.101562 82.167969 68.105469 "/>
<path style=" stroke:none;fill-rule:nonzero;fill:rgb(96.078491%,47.44873%,18.03894%);fill-opacity:1;" d="M 85.003906 82.875 C 85.492188 82.796875 85.824219 82.335938 85.746094 81.84375 L 81.503906 55.339844 C 81.425781 54.847656 80.964844 54.515625 80.476562 54.59375 C 79.988281 54.671875 79.65625 55.132812 79.734375 55.625 L 83.976562 82.128906 C 84.054688 82.621094 84.515625 82.953125 85.003906 82.875 "/>
<path style=" stroke:none;fill-rule:nonzero;fill:rgb(83.139038%,94.509888%,98.81897%);fill-opacity:1;" d="M 122.410156 36.394531 C 122.410156 36.394531 121.632812 40.570312 125.039062 40.570312 C 128.671875 40.570312 129.015625 36.394531 129.015625 36.394531 L 129.015625 26.46875 L 122.410156 26.46875 L 122.410156 36.394531 "/>
<path style=" stroke:none;fill-rule:nonzero;fill:rgb(45.098877%,82.348633%,96.469116%);fill-opacity:1;" d="M 154.527344 100.816406 C 154.527344 100.816406 148.238281 104.019531 142.496094 103.539062 C 134.960938 102.90625 137.660156 89.363281 137.660156 89.363281 C 137.660156 89.363281 142.628906 87.78125 144.449219 89.746094 C 146.273438 91.707031 154.527344 100.816406 154.527344 100.816406 "/>
<path style=" stroke:none;fill-rule:nonzero;fill:rgb(91.369629%,91.369629%,91.369629%);fill-opacity:1;" d="M 122.152344 93.605469 L 142.789062 93.605469 C 142.789062 93.605469 157.03125 40.410156 143.308594 32.890625 C 140.84375 31.539062 118.730469 33.292969 116.84375 41.242188 C 110.539062 67.816406 122.152344 93.605469 122.152344 93.605469 "/>
<path style=" stroke:none;fill-rule:nonzero;fill:rgb(14.118958%,24.708557%,47.059631%);fill-opacity:1;" d="M 125.390625 33.820312 C 125.390625 33.820312 122.054688 62.484375 132.421875 78.046875 C 142.789062 93.605469 154.527344 100.816406 154.527344 100.816406 C 154.527344 100.816406 145.644531 90.074219 147.601562 77.878906 C 149.554688 65.683594 152.117188 34.84375 143.445312 32.476562 C 135.320312 30.257812 125.390625 33.820312 125.390625 33.820312 "/>
<path style=" stroke:none;fill-rule:nonzero;fill:rgb(14.118958%,24.708557%,47.059631%);fill-opacity:1;" d="M 122.066406 94.710938 C 122.066406 94.710938 108.019531 61.9375 116.640625 40.136719 C 117.351562 38.34375 118.570312 35.910156 122.410156 35.910156 C 122.339844 35.972656 106.085938 42.753906 122.234375 93.972656 L 122.066406 94.710938 "/>
<path style=" stroke:none;fill-rule:nonzero;fill:rgb(96.469116%,72.938538%,10.198975%);fill-opacity:1;" d="M 122.410156 35.261719 L 123.773438 37.746094 L 121.058594 41.039062 L 120.53125 37.453125 L 122.410156 35.261719 "/>
<path style=" stroke:none;fill-rule:nonzero;fill:rgb(96.469116%,72.938538%,10.198975%);fill-opacity:1;" d="M 121.667969 39.667969 C 121.59375 52.007812 123.59375 64.042969 127.417969 75.289062 C 126.707031 77.023438 126.039062 78.796875 125.414062 80.613281 C 123.953125 79.289062 122.515625 77.910156 121.105469 76.480469 C 119.058594 64.097656 119.097656 51.558594 121.148438 39.382812 C 121.320312 39.480469 121.492188 39.574219 121.667969 39.667969 "/>
<path style=" stroke:none;fill-rule:nonzero;fill:rgb(83.139038%,94.509888%,98.81897%);fill-opacity:1;" d="M 99.785156 181.597656 C 99.292969 184.914062 100.179688 196.492188 101.023438 196.914062 C 101.742188 197.269531 105.644531 197.019531 105.746094 196.492188 C 106.113281 194.507812 106.398438 182.015625 106.398438 182.015625 C 106.398438 182.015625 106.25 179.480469 104.0625 179.148438 C 100.855469 178.664062 99.992188 180.226562 99.785156 181.597656 "/>
<path style=" stroke:none;fill-rule:nonzero;fill:rgb(14.118958%,24.708557%,47.059631%);fill-opacity:1;" d="M 143.636719 103.929688 C 142.109375 106.285156 135.371094 108.820312 132.574219 108.820312 C 129.824219 108.820312 122.230469 105.667969 121.480469 103.496094 C 120.96875 102.019531 121.28125 91.828125 121.28125 91.828125 L 143.949219 91.828125 C 143.949219 91.828125 145.96875 100.324219 143.636719 103.929688 "/>
<path style=" stroke:none;fill-rule:nonzero;fill:rgb(14.118958%,24.708557%,47.059631%);fill-opacity:1;" d="M 121.296875 91.882812 C 121.296875 91.882812 98.703125 129.414062 97.722656 144.148438 C 97.414062 148.746094 107.195312 151.257812 107.425781 151.261719 L 131.164062 105.617188 L 121.296875 91.882812 "/>
<path style=" stroke:none;fill-rule:nonzero;fill:rgb(14.118958%,24.708557%,47.059631%);fill-opacity:1;" d="M 97.679688 144.207031 C 97.070312 183.375 99.367188 189.59375 99.917969 194.363281 C 99.992188 195.011719 106.820312 193.667969 106.820312 193.667969 L 109.1875 147.269531 C 109.1875 147.269531 107.460938 141.878906 104.351562 141.800781 C 100.5625 141.703125 97.714844 142.164062 97.679688 144.207031 "/>
<path style=" stroke:none;fill-rule:nonzero;fill:rgb(83.139038%,94.509888%,98.81897%);fill-opacity:1;" d="M 147.59375 182.332031 C 148.613281 185.476562 153.945312 195.15625 154.6875 195.101562 C 155.320312 195.050781 157.863281 192.867188 157.710938 192.351562 C 157.152344 190.433594 152.238281 179.367188 152.238281 179.367188 C 152.238281 179.367188 151.105469 177.222656 149.484375 178.035156 C 147.117188 179.226562 147.171875 181.023438 147.59375 182.332031 "/>
<path style=" stroke:none;fill-rule:nonzero;fill:rgb(14.118958%,24.708557%,47.059631%);fill-opacity:1;" d="M 127.628906 92.191406 C 127.628906 92.191406 123.890625 137.894531 129.269531 151.261719 C 130.949219 155.433594 140.507812 151.949219 140.710938 151.816406 L 143.808594 102.980469 C 143.808594 102.980469 142.78125 100.855469 139.273438 100.191406 C 133.324219 99.066406 127.628906 92.191406 127.628906 92.191406 "/>
<path style=" stroke:none;fill-rule:nonzero;fill:rgb(14.118958%,24.708557%,47.059631%);fill-opacity:1;" d="M 129.261719 151.339844 C 145.304688 185.71875 149.933594 189.785156 152.425781 193.613281 C 152.765625 194.132812 158.132812 189.011719 158.132812 189.011719 L 140.550781 147.328125 C 140.550781 147.328125 136.769531 143.648438 134.035156 145.378906 C 130.703125 147.492188 128.421875 149.546875 129.261719 151.339844 "/>
<path style=" stroke:none;fill-rule:nonzero;fill:rgb(100%,100%,100%);fill-opacity:1;" d="M 123.773438 37.746094 L 129.984375 34.300781 L 129.152344 31.46875 L 122.410156 35.261719 L 123.773438 37.746094 "/>
<path style=" stroke:none;fill-rule:nonzero;fill:rgb(100%,100%,100%);fill-opacity:1;" d="M 120.53125 37.453125 L 122.410156 35.261719 L 122.410156 33.203125 L 119.589844 35.011719 L 120.53125 37.453125 "/>
<path style=" stroke:none;fill-rule:nonzero;fill:rgb(83.139038%,94.509888%,98.81897%);fill-opacity:1;" d="M 115.570312 16.203125 C 113.957031 22.113281 112.175781 27.414062 114.835938 28.933594 C 116.945312 30.136719 122.546875 29.824219 122.546875 29.824219 C 122.546875 29.824219 127.03125 29.574219 129.191406 23.851562 C 131.355469 18.125 131.242188 12.59375 126.886719 10.925781 C 123.109375 9.484375 119.214844 8.0625 117.023438 12.09375 C 116.6875 12.714844 115.789062 15.414062 115.570312 16.203125 "/>
<g clip-path="url(#clip2)" clip-rule="nonzero">
<path style=" stroke:none;fill-rule:nonzero;fill:rgb(14.118958%,24.708557%,47.059631%);fill-opacity:1;" d="M 118.449219 7.3125 L 118.523438 7.296875 C 122.910156 6.132812 126.007812 7.46875 129.625 9.976562 C 132.054688 11.660156 133.1875 15.015625 132.742188 16.949219 C 132.035156 20.027344 130.398438 26.769531 128.832031 28.179688 C 127.6875 29.210938 127.171875 25.441406 127.09375 24.839844 C 126.914062 23.542969 126.648438 20.640625 124.757812 20.761719 C 124.039062 20.804688 124.144531 22.5625 123.835938 23.164062 C 123.621094 23.582031 121.917969 22.96875 121.917969 22.96875 L 124.398438 16.070312 C 123.582031 14.925781 122.476562 13.964844 121.3125 13.519531 C 119.589844 12.851562 118.359375 13.917969 116.566406 13.199219 C 115.949219 12.953125 116.214844 8.109375 118.449219 7.3125 "/>
</g>
<path style=" stroke:none;fill-rule:nonzero;fill:rgb(83.139038%,94.509888%,98.81897%);fill-opacity:1;" d="M 123.867188 22.039062 C 123.597656 23.175781 124.054688 24.261719 124.886719 24.460938 C 125.71875 24.660156 126.613281 23.898438 126.882812 22.761719 C 127.152344 21.625 126.699219 20.539062 125.863281 20.339844 C 125.03125 20.136719 124.136719 20.898438 123.867188 22.039062 "/>
<path style=" stroke:none;fill-rule:nonzero;fill:rgb(83.139038%,94.509888%,98.81897%);fill-opacity:1;" d="M 115.265625 17.792969 C 115.265625 17.792969 113.792969 20.664062 112.792969 21.558594 C 112.429688 21.882812 114.625 22.214844 114.625 22.214844 L 115.265625 17.792969 "/>
<path style=" stroke:none;fill-rule:nonzero;fill:rgb(14.118958%,24.708557%,47.059631%);fill-opacity:1;" d="M 113.699219 23.414062 C 113.699219 22.773438 113.96875 22.230469 113.96875 22.230469 C 113.96875 22.230469 115.429688 22.113281 116.28125 22.976562 C 116.984375 23.699219 118.09375 25.683594 119.589844 25.273438 C 121.085938 24.867188 121.917969 22.96875 121.917969 22.96875 L 123.835938 23.160156 C 123.835938 23.160156 125.210938 29.648438 122.554688 29.953125 C 119.871094 30.257812 114.847656 30.296875 113.84375 28.078125 C 113.445312 27.210938 113.375 25.316406 113.46875 25.296875 C 113.988281 25.203125 114.277344 25.933594 114.652344 25.171875 C 115.585938 23.253906 114.066406 23.910156 113.699219 23.414062 "/>
<path style=" stroke:none;fill-rule:nonzero;fill:rgb(83.139038%,94.509888%,98.81897%);fill-opacity:1;" d="M 98.582031 91.867188 C 99.097656 91.671875 100.375 91.175781 100.917969 91.085938 C 101.421875 91 101.976562 91.277344 102.292969 91.46875 L 104.75 89.160156 L 107.375 90.960938 L 104.15625 93.734375 C 103.363281 94.695312 101.222656 95.949219 100.800781 96.074219 C 100.410156 96.195312 100.09375 96.261719 99.839844 96.296875 C 98.136719 96.632812 97.355469 96.695312 95.960938 96.695312 C 95.304688 96.699219 94.992188 96.371094 94.957031 96.050781 C 94.917969 95.671875 95.707031 95.589844 95.992188 95.542969 C 96.90625 95.402344 96.292969 95.632812 97.78125 95.191406 C 98.226562 95.042969 98.65625 94.914062 98.917969 94.808594 C 99.273438 94.660156 99.71875 94.042969 99.921875 93.671875 C 100.109375 93.320312 100.3125 93.011719 100.507812 92.738281 C 99.980469 92.714844 98.964844 92.941406 98.472656 92.484375 C 98.214844 92.242188 98.386719 91.945312 98.582031 91.867188 "/>
<path style=" stroke:none;fill-rule:nonzero;fill:rgb(14.118958%,24.708557%,47.059631%);fill-opacity:1;" d="M 146.574219 35.871094 C 149.996094 49.925781 133.753906 72.796875 130.847656 75.832031 C 128.546875 78.238281 122.128906 77.613281 123.515625 72.203125 C 123.957031 70.476562 134.144531 40.988281 135.050781 37.992188 "/>
<path style=" stroke:none;fill-rule:nonzero;fill:rgb(14.118958%,24.708557%,47.059631%);fill-opacity:1;" d="M 130.847656 75.832031 C 129.609375 79.257812 110.703125 89.289062 107.4375 92.007812 C 106.300781 92.953125 106.832031 93.855469 105.3125 93.558594 C 104.203125 93.34375 103.105469 92.371094 102.363281 91.5 C 102.039062 91.113281 101.597656 90.492188 101.546875 89.988281 C 101.476562 89.242188 102.890625 88.925781 103.289062 88.351562 C 104.859375 86.089844 123.976562 69.03125 126.078125 69.4375 C 127.136719 69.640625 128.648438 70.882812 129.460938 71.535156 C 130.679688 72.523438 131.328125 74.507812 130.847656 75.832031 "/>
</g>
</svg>
